HIERARCHY
ROOT joint_0
{
	OFFSET 0.000000 0.000000 0.000000
	CHANNELS 6 Xposition Yposition Zposition Zrotation Yrotation Xrotation 
	JOINT joint_1
	{
		OFFSET 8.185791 -2.713684 100.414917
		CHANNELS 3 Zrotation Yrotation Xrotation
		JOINT joint_2
		{
			OFFSET -4.376465 -1.111145 91.934082
			CHANNELS 3 Zrotation Yrotation Xrotation
			JOINT joint_3
			{
				OFFSET -6.985840 -1.054016 91.669922
				CHANNELS 3 Zrotation Yrotation Xrotation
				JOINT joint_4
				{
					OFFSET 0.150391 -4.451904 123.526001
					CHANNELS 3 Zrotation Yrotation Xrotation
					JOINT joint_5
					{
						OFFSET 19.754150 -8.123901 80.916992
						CHANNELS 3 Zrotation Yrotation Xrotation
						End Site
						{
							OFFSET 0.000000 0.000000 0.000000
						}
					}
				}
				JOINT joint_6
				{
					OFFSET -6.477539 -28.517334 68.237061
					CHANNELS 3 Zrotation Yrotation Xrotation
					JOINT joint_7
					{
						OFFSET -20.564453 -115.426208 -21.139038
						CHANNELS 3 Zrotation Yrotation Xrotation
						JOINT joint_8
						{
							OFFSET 18.981934 -19.826172 -267.898926
							CHANNELS 3 Zrotation Yrotation Xrotation
							JOINT joint_9
							{
								OFFSET 11.562744 -19.325867 -235.478027
								CHANNELS 3 Zrotation Yrotation Xrotation
								End Site
								{
									OFFSET 0.000000 0.000000 0.000000
								}
							}
						}
					}
				}
				JOINT joint_10
				{
					OFFSET 7.033936 23.504700 70.088989
					CHANNELS 3 Zrotation Yrotation Xrotation
					JOINT joint_11
					{
						OFFSET 36.629639 112.486816 -14.036987
						CHANNELS 3 Zrotation Yrotation Xrotation
						JOINT joint_12
						{
							OFFSET 41.355225 -7.048523 -266.019897
							CHANNELS 3 Zrotation Yrotation Xrotation
							JOINT joint_13
							{
								OFFSET 5.858887 29.785156 -234.603027
								CHANNELS 3 Zrotation Yrotation Xrotation
								End Site
								{
									OFFSET 0.000000 0.000000 0.000000
								}
							}
						}
					}
				}
			}
		}
	}
	JOINT joint_14
	{
		OFFSET -8.917725 -79.985535 -99.035034
		CHANNELS 3 Zrotation Yrotation Xrotation
		JOINT joint_15
		{
			OFFSET -32.739502 -31.478882 -502.570984
			CHANNELS 3 Zrotation Yrotation Xrotation
			JOINT joint_16
			{
				OFFSET 7.393066 -29.352966 -399.008011
				CHANNELS 3 Zrotation Yrotation Xrotation
				JOINT joint_17
				{
					OFFSET 178.013916 -26.060303 -71.875002
					CHANNELS 3 Zrotation Yrotation Xrotation
					End Site
					{
						OFFSET 0.000000 0.000000 0.000000
					}
				}
			}
		}
	}
	JOINT joint_18
	{
		OFFSET 1.900879 81.159851 -98.481018
		CHANNELS 3 Zrotation Yrotation Xrotation
		JOINT joint_19
		{
			OFFSET -15.120850 31.602051 -503.400024
			CHANNELS 3 Zrotation Yrotation Xrotation
			JOINT joint_20
			{
				OFFSET -16.653076 23.887695 -399.091988
				CHANNELS 3 Zrotation Yrotation Xrotation
				JOINT joint_21
				{
					OFFSET 179.618164 -1.217651 -72.592001
					CHANNELS 3 Zrotation Yrotation Xrotation
					End Site
					{
						OFFSET 0.000000 0.000000 0.000000
					}
				}
			}
		}
	}
}
MOTION
Frames: 13
Frame Time: 0.016667
-2878.820801 576.893799 1094.661011 1.338489 -2.198508 -0.238631 3.013671 3.207955 -1.050351 3.035873 -0.705239 0.353601 3.002607 0.660702 -0.293344 0.131494 0.558851 -0.322345 0.000000 0.000000 0.000000 0.558581 -0.257154 0.266168 0.186565 -0.564562 2.384597 -0.078937 0.696004 -0.273945 0.000000 0.000000 0.000000 2.917909 3.159196 -0.813406 0.031335 0.813487 5.333826 -1.781772 -7.479665 -8.828486 0.000000 0.000000 0.000000 -1.030091 5.090507 0.428031 -0.979947 2.498426 2.018028 -0.536526 -4.251372 -0.838089 0.000000 0.000000 0.000000 1.733280 4.038178 2.460340 1.683719 1.269739 -1.313075 1.343327 -3.186088 0.519003 0.000000 0.000000 0.000000 
-2878.711182 577.017761 1094.636963 1.331877 -2.199844 -0.235594 3.005888 3.200810 -1.058167 3.028516 -0.704467 0.354332 2.995168 0.660782 -0.293586 0.136988 0.570782 -0.340314 0.000000 0.000000 0.000000 0.563225 -0.248336 0.284497 0.185639 -0.551184 2.382881 -0.079117 0.697177 -0.275918 0.000000 0.000000 0.000000 2.930867 3.171554 -0.827256 0.032142 0.816235 5.344597 -1.782397 -7.486994 -8.829574 0.000000 0.000000 0.000000 -1.027118 5.095879 0.412230 -0.978511 2.502339 2.026266 -0.534920 -4.251823 -0.837507 0.000000 0.000000 0.000000 1.736722 4.041737 2.452365 1.687412 1.280274 -1.316847 1.346183 -3.186860 0.520148 0.000000 0.000000 0.000000 
-2878.629150 577.148987 1094.613037 1.327184 -2.199638 -0.233559 2.997233 3.199646 -1.063985 3.020119 -0.705132 0.354920 2.986832 0.662218 -0.292580 0.141482 0.582278 -0.354367 0.000000 0.000000 0.000000 0.568153 -0.243567 0.301209 0.184733 -0.541393 2.377261 -0.079065 0.696325 -0.277154 0.000000 0.000000 0.000000 2.944749 3.181253 -0.845751 0.033986 0.813565 5.359162 -1.783290 -7.494058 -8.833581 0.000000 0.000000 0.000000 -1.024862 5.096350 0.397176 -0.978301 2.510199 2.034715 -0.534149 -4.253826 -0.837489 0.000000 0.000000 0.000000 1.739372 4.041127 2.444517 1.690612 1.292028 -1.319836 1.348552 -3.187089 0.521103 0.000000 0.000000 0.000000 
-2878.566650 577.290100 1094.588989 1.324992 -2.198271 -0.232236 2.986748 3.203576 -1.066336 3.009510 -0.709469 0.352973 2.976654 0.666436 -0.290267 0.145369 0.593503 -0.366052 0.000000 0.000000 0.000000 0.575172 -0.242289 0.316328 0.183815 -0.534419 2.368416 -0.078888 0.694572 -0.277675 0.000000 0.000000 0.000000 2.961977 3.188913 -0.867570 0.036820 0.806671 5.376107 -1.784087 -7.499600 -8.839169 0.000000 0.000000 0.000000 -1.023505 5.093678 0.382254 -0.979336 2.520058 2.043801 -0.534485 -4.255978 -0.837938 0.000000 0.000000 0.000000 1.741205 4.037081 2.436608 1.693271 1.305141 -1.322383 1.350326 -3.187432 0.521820 0.000000 0.000000 0.000000 
-2878.516357 577.433411 1094.566040 1.323681 -2.198321 -0.231552 2.977700 3.211576 -1.070340 3.000498 -0.714820 0.353421 2.967871 0.672148 -0.288667 0.148166 0.600196 -0.374989 0.000000 0.000000 0.000000 0.577589 -0.242554 0.332847 0.182824 -0.529072 2.356782 -0.078604 0.691961 -0.277688 0.000000 0.000000 0.000000 2.974418 3.194379 -0.887907 0.039529 0.799115 5.391654 -1.785016 -7.505113 -8.845856 0.000000 0.000000 0.000000 -1.022445 5.091061 0.367424 -0.980849 2.531861 2.053919 -0.535125 -4.258844 -0.838615 0.000000 0.000000 0.000000 1.742880 4.033463 2.429554 1.695823 1.318680 -1.325613 1.352024 -3.186430 0.522517 0.000000 0.000000 0.000000 
-2878.474121 577.580261 1094.546021 1.322702 -2.202991 -0.232468 2.973486 3.225277 -1.072353 2.996137 -0.718342 0.352308 2.963802 0.677301 -0.287332 0.149233 0.600787 -0.379168 0.000000 0.000000 0.000000 0.565767 -0.243289 0.353158 0.181661 -0.525361 2.341014 -0.078239 0.688796 -0.277086 0.000000 0.000000 0.000000 2.973276 3.197300 -0.903819 0.041103 0.793482 5.402839 -1.786308 -7.512392 -8.852684 0.000000 0.000000 0.000000 -1.021573 5.092148 0.353144 -0.982546 2.545930 2.065748 -0.535741 -4.262773 -0.839437 0.000000 0.000000 0.000000 1.744684 4.034567 2.424718 1.698294 1.331685 -1.329869 1.353694 -3.184369 0.523208 0.000000 0.000000 0.000000 
-2878.445312 577.730286 1094.527954 1.322499 -2.211886 -0.234493 2.971863 3.247301 -1.074079 2.994282 -0.722466 0.351005 2.962337 0.682122 -0.284959 0.149528 0.596924 -0.381877 0.000000 0.000000 0.000000 0.545795 -0.245481 0.375053 0.180356 -0.523580 2.321212 -0.077739 0.684715 -0.275484 0.000000 0.000000 0.000000 2.964483 3.197684 -0.917479 0.042101 0.788090 5.410559 -1.787806 -7.520180 -8.860345 0.000000 0.000000 0.000000 -1.020976 5.095965 0.339248 -0.984567 2.562600 2.078708 -0.536417 -4.268004 -0.840476 0.000000 0.000000 0.000000 1.746601 4.039111 2.421543 1.700779 1.344926 -1.335188 1.355390 -3.181135 0.523919 0.000000 0.000000 0.000000 
-2878.419189 577.876160 1094.510986 1.323032 -2.218378 -0.236505 2.971757 3.264871 -1.079822 2.994286 -0.727098 0.351918 2.962448 0.687213 -0.284253 0.148754 0.592881 -0.380269 0.000000 0.000000 0.000000 0.522831 -0.246079 0.398248 0.179168 -0.521081 2.304458 -0.077485 0.682487 -0.275151 0.000000 0.000000 0.000000 2.952290 3.198672 -0.930039 0.043008 0.783311 5.420602 -1.789717 -7.528957 -8.868948 0.000000 0.000000 0.000000 -1.020782 5.097307 0.325525 -0.987126 2.578781 2.092132 -0.537735 -4.272497 -0.841664 0.000000 0.000000 0.000000 1.748165 4.040618 2.418939 1.703169 1.358561 -1.341551 1.356944 -3.177705 0.524574 0.000000 0.000000 0.000000 
-2878.391357 578.012085 1094.493042 1.323808 -2.218300 -0.237740 2.972160 3.269397 -1.091627 2.995309 -0.729015 0.354010 2.963232 0.689716 -0.286031 0.147155 0.592780 -0.373781 0.000000 0.000000 0.000000 0.504673 -0.242163 0.421431 0.178456 -0.515150 2.298238 -0.077588 0.681782 -0.278921 0.000000 0.000000 0.000000 2.942244 3.201989 -0.939821 0.043796 0.779861 5.435576 -1.792639 -7.540119 -8.880844 0.000000 0.000000 0.000000 -1.020682 5.092236 0.311879 -0.990024 2.593459 2.105042 -0.539509 -4.276857 -0.843017 0.000000 0.000000 0.000000 1.749299 4.034884 2.416183 1.705606 1.372575 -1.348614 1.358434 -3.175334 0.525197 0.000000 0.000000 0.000000 
-2878.364990 578.138977 1094.477051 1.325308 -2.213743 -0.238740 2.973857 3.265058 -1.109946 2.998223 -0.728907 0.359659 2.965430 0.689880 -0.289848 0.144747 0.594371 -0.363334 0.000000 0.000000 0.000000 0.485220 -0.235053 0.444732 0.178054 -0.507538 2.298999 -0.078055 0.683565 -0.285070 0.000000 0.000000 0.000000 2.929618 3.207107 -0.948585 0.044608 0.777402 5.455000 -1.796308 -7.553117 -8.895225 0.000000 0.000000 0.000000 -1.021062 5.082525 0.298947 -0.993539 2.607241 2.117431 -0.542050 -4.280013 -0.844502 0.000000 0.000000 0.000000 1.749801 4.023648 2.413847 1.707835 1.387464 -1.356438 1.359668 -3.172554 0.525721 0.000000 0.000000 0.000000 
-2878.340820 578.268677 1094.458008 1.326882 -2.208189 -0.239668 2.975566 3.258210 -1.127951 3.001097 -0.729593 0.364263 2.967704 0.691192 -0.293480 0.142614 0.596693 -0.353743 0.000000 0.000000 0.000000 0.468914 -0.227351 0.467931 0.177596 -0.498865 2.300326 -0.078542 0.685679 -0.290909 0.000000 0.000000 0.000000 2.919972 3.212836 -0.958792 0.045299 0.774670 5.474539 -1.799783 -7.565299 -8.907177 0.000000 0.000000 0.000000 -1.021605 5.072490 0.284984 -0.997294 2.619154 2.131443 -0.545025 -4.282864 -0.846118 0.000000 0.000000 0.000000 1.750379 4.011679 2.411873 1.710179 1.401333 -1.365762 1.361014 -3.169722 0.526291 0.000000 0.000000 0.000000 
-2878.319336 578.405273 1094.433960 1.329127 -2.203965 -0.239939 2.977370 3.254529 -1.145322 3.003931 -0.733105 0.368006 2.970130 0.693719 -0.296177 0.140842 0.599465 -0.345477 0.000000 0.000000 0.000000 0.450530 -0.220183 0.491980 0.176772 -0.490116 2.297310 -0.078780 0.687445 -0.292381 0.000000 0.000000 0.000000 2.911873 3.218625 -0.972228 0.046012 0.771551 5.491668 -1.802047 -7.573550 -8.912125 0.000000 0.000000 0.000000 -1.022384 5.065689 0.268452 -1.001210 2.627215 2.148409 -0.548623 -4.284013 -0.847735 0.000000 0.000000 0.000000 1.750725 4.001926 2.409491 1.712059 1.413085 -1.376764 1.362028 -3.165643 0.526736 0.000000 0.000000 0.000000 
-2878.298828 578.545776 1094.406006 1.331658 -2.199103 -0.240146 2.979071 3.248014 -1.162943 3.006749 -0.735355 0.372535 2.972474 0.696704 -0.298777 0.139596 0.602438 -0.339300 0.000000 0.000000 0.000000 0.434105 -0.212939 0.515753 0.175746 -0.480672 2.292765 -0.078854 0.688944 -0.290993 0.000000 0.000000 0.000000 2.906934 3.224708 -0.988684 0.046776 0.767719 5.507714 -1.803412 -7.578722 -8.911309 0.000000 0.000000 0.000000 -1.023331 5.059690 0.250423 -1.005297 2.631854 2.167995 -0.552759 -4.284325 -0.849446 0.000000 0.000000 0.000000 1.751038 3.992414 2.407368 1.713813 1.422641 -1.389300 1.363041 -3.160491 0.527189 0.000000 0.000000 0.000000 
